<svg xmlns="http://www.w3.org/2000/svg" viewBox="0 0 145.53892 194"><defs><style>.cls-1{fill:#fff;stroke:#000;stroke-miterlimit:10;stroke-width:4px;}.cls-2{fill:#cc3517;}</style></defs><g id="Layer_1" data-name="Layer 1"><path class="cls-1" d="M120.711,212.01366,78.85471,237.64a1.27373,1.27373,0,0,0,.66508,2.36h96.96042a1.27373,1.27373,0,0,0,.66508-2.36l-41.855-25.6255A6.88568,6.88568,0,0,1,132,206.142V130l66.51505-78.253A1.0603,1.0603,0,0,0,197.70717,50H58.29292a1.0603,1.0603,0,0,0-.80786,1.747l66.54272,78.28075-.02644,76.1158A6.88575,6.88575,0,0,1,120.711,212.01366Z" transform="translate(-55.23058 -48)"/></g><g id="Layer_2" data-name="Layer 2"><path class="cls-2" d="M65.11042,54l60.95322,69.8216a2.56891,2.56891,0,0,0,3.85433-.0162l32.7487-37.47206c-.147-9.50318-14.33333-4.88889-19.11111-4S127.22222,83.66666,118,76.11111s-8.86567-11.23346-20.77778-12.22222C82.64634,63.90329,83.501,64.12316,65.11042,54Z" transform="translate(-55.23058 -48)"/></g></svg>